<svg width="1024" height="1024" viewBox="0 0 1024 1024" fill="none" xmlns="http://www.w3.org/2000/svg">
<g clip-path="url(#clip0_1_2)">
<path d="M643.15 747.377C595.353 859.376 435.936 857.479 390.819 744.374L332.238 597.516C326.667 583.551 318.828 570.602 309.036 559.193L234.646 472.513C154.343 378.945 229.434 235.294 352.099 247.822L496.616 262.583C506.119 263.553 515.698 263.524 525.195 262.494L682.573 245.436C803.375 232.342 879.788 371.744 803.771 466.537L728.334 560.606C720.563 570.296 714.152 581.001 709.277 592.425L643.15 747.377Z" fill="black"/>
<path d="M394.351 225.907C442.361 114.364 601.333 116.748 645.978 229.681L704.104 376.72C709.647 390.74 717.468 403.749 727.251 415.22L801.372 502.129C881.165 595.688 805.838 738.711 683.55 725.839L539.079 710.631C529.553 709.628 519.947 709.628 510.421 710.631L352.991 727.203C232.482 739.888 156.708 600.634 232.809 506.336L308.536 412.501C316.358 402.809 322.821 392.094 327.745 380.654L394.351 225.907Z" fill="#00E599" stroke="black" stroke-width="0.75"/>
<ellipse cx="512" cy="493" rx="135" ry="139" fill="black"/>
<circle cx="511.5" cy="493.5" r="50.5" fill="#00E599"/>
</g>
<defs>
<clipPath id="clip0_1_2">
<rect width="1024" height="1024" fill="white"/>
</clipPath>
</defs>
</svg>
